<?xml version="1.0" encoding="UTF-8" standalone="no"?>
<!-- Created with Inkscape (http://www.inkscape.org/) -->

<svg
   width="24.0px"
   height="24.0px"
   viewBox="0 0 24.0 24.0"
   version="1.1"
   id="SVGRoot"
   sodipodi:docname="file-zip.svg"
   inkscape:version="1.2.2 (b0a8486541, 2022-12-01)"
   xmlns:inkscape="http://www.inkscape.org/namespaces/inkscape"
   xmlns:sodipodi="http://sodipodi.sourceforge.net/DTD/sodipodi-0.dtd"
   xmlns="http://www.w3.org/2000/svg"
   xmlns:svg="http://www.w3.org/2000/svg">
  <sodipodi:namedview
     id="namedview136"
     pagecolor="#505050"
     bordercolor="#ffffff"
     borderopacity="1"
     inkscape:showpageshadow="0"
     inkscape:pageopacity="0"
     inkscape:pagecheckerboard="1"
     inkscape:deskcolor="#505050"
     inkscape:document-units="px"
     showgrid="true"
     inkscape:zoom="22.627417"
     inkscape:cx="-2.5632621"
     inkscape:cy="12.81631"
     inkscape:window-width="1440"
     inkscape:window-height="863"
     inkscape:window-x="0"
     inkscape:window-y="0"
     inkscape:window-maximized="1"
     inkscape:current-layer="layer1"
     showguides="true">
    <inkscape:grid
       type="xygrid"
       id="grid142" />
  </sodipodi:namedview>
  <defs
     id="defs131">
    <linearGradient
       id="linearGradient6150"
       inkscape:swatch="solid">
      <stop
         style="stop-color:#ffffff;stop-opacity:1;"
         offset="0"
         id="stop6148" />
    </linearGradient>
    <filter
       inkscape:label="Pixellize"
       inkscape:menu="Pixel Tools"
       inkscape:menu-tooltip="Reduce or remove antialiasing around shapes"
       style="color-interpolation-filters:sRGB;"
       id="filter313"
       x="0"
       y="0"
       width="1"
       height="1">
      <feColorMatrix
         values="1 0 0 0 0 0 1 0 0 0 0 0 1 0 0 0 0 0 1000 -500 "
         id="feColorMatrix311" />
    </filter>
  </defs>
  <g
     inkscape:label="Layer 1"
     inkscape:groupmode="layer"
     id="layer1">
    <path
       id="path3343"
       style="fill:#000000;fill-opacity:1;stroke:#000000;stroke-width:0;stroke-linecap:butt;stroke-linejoin:miter;stroke-dasharray:none;stroke-opacity:1"
       d="M 6 1 C 5.000006 1 4 2.000006 4 3 L 4 21 C 4 21.999994 5.000006 23 6 23 L 18 23 C 18.999994 23 20 21.999994 20 21 L 20 8 L 14.769531 8.0390625 C 14.031488 8.0445745 13.421875 7.4294713 13.421875 6.6914062 L 13.421875 1 L 9 1 L 9 1.5 L 9 2 L 9 2.5 C 9 3.499998 8 3.5 8 3.5 C 8 3.5 7 3.499998 7 2.5 L 7 2 L 7 1.5 L 7 1 L 6 1 z M 14.421875 1.421875 L 14.421875 6.6914062 C 14.421875 6.8927721 14.568164 7.0390625 14.769531 7.0390625 L 20 7.0390625 L 20 7 L 14.421875 1.421875 z M 8 6 C 8 6 9 6.000003 9 7 L 9 8 C 9 8.999997 8 9 8 9 C 8 9 7 8.999997 7 8 L 7 7 C 7 6.000003 8 6 8 6 z M 8 11.5 C 8 11.5 9 11.500004 9 12.5 L 9 13.5 C 9 14.499996 8 14.5 8 14.5 C 8 14.5 7 14.499996 7 13.5 L 7 12.5 C 7 11.500004 8 11.5 8 11.5 z M 8 17 C 8.999995 17 10 18.000005 10 19 C 10 19.999997 8.999995 21 8 21 C 7.000005 21 6 19.999995 6 19 C 6 18.000004 7.000005 17 8 17 z " />
    <path
       style="fill:#000000;fill-opacity:1;stroke:#000000;stroke-width:0;stroke-linecap:butt;stroke-linejoin:miter;stroke-dasharray:none;stroke-opacity:1"
       d="m -7,5 v 0 c 1,0 2,0.999999 2,1.999999 v 0 c 0,1.0000015 -1,2.0000015 -2,2.0000015 v 0 c -1,0 -2,-1 -2,-2 v 0 C -9,6 -8,5 -7,5 Z"
       id="path21029"
       sodipodi:nodetypes="ccccccccc" />
    <path
       style="fill:#000000;fill-opacity:1;stroke:#000000;stroke-width:0;stroke-linecap:butt;stroke-linejoin:miter;stroke-dasharray:none;stroke-opacity:1"
       d="m -3,15 c 0,0 1,0 1,1 v 1 c 0,1 -1,1 -1,1 0,0 -1,0 -1,-1 v -1 c 0,-1 1,-1 1,-1 z"
       id="path19093"
       sodipodi:nodetypes="ccccccc" />
  </g>
</svg>
