<?xml version="1.0" encoding="UTF-8" standalone="no"?>
<!-- Created with Inkscape (http://www.inkscape.org/) -->

<svg
   width="24.0px"
   height="24.0px"
   viewBox="0 0 24.0 24.0"
   version="1.1"
   id="SVGRoot"
   sodipodi:docname="file.svg"
   inkscape:version="1.2.2 (b0a8486541, 2022-12-01)"
   xmlns:inkscape="http://www.inkscape.org/namespaces/inkscape"
   xmlns:sodipodi="http://sodipodi.sourceforge.net/DTD/sodipodi-0.dtd"
   xmlns="http://www.w3.org/2000/svg"
   xmlns:svg="http://www.w3.org/2000/svg">
  <sodipodi:namedview
     id="namedview136"
     pagecolor="#505050"
     bordercolor="#ffffff"
     borderopacity="1"
     inkscape:showpageshadow="0"
     inkscape:pageopacity="0"
     inkscape:pagecheckerboard="1"
     inkscape:deskcolor="#505050"
     inkscape:document-units="px"
     showgrid="true"
     inkscape:zoom="22.627417"
     inkscape:cx="4.6624853"
     inkscape:cy="12.109204"
     inkscape:window-width="1920"
     inkscape:window-height="1011"
     inkscape:window-x="0"
     inkscape:window-y="0"
     inkscape:window-maximized="1"
     inkscape:current-layer="layer1"
     showguides="true">
    <inkscape:grid
       type="xygrid"
       id="grid142" />
  </sodipodi:namedview>
  <defs
     id="defs131">
    <linearGradient
       id="linearGradient6150"
       inkscape:swatch="solid">
      <stop
         style="stop-color:#ffffff;stop-opacity:1;"
         offset="0"
         id="stop6148" />
    </linearGradient>
    <filter
       inkscape:label="Pixellize"
       inkscape:menu="Pixel Tools"
       inkscape:menu-tooltip="Reduce or remove antialiasing around shapes"
       style="color-interpolation-filters:sRGB;"
       id="filter313"
       x="0"
       y="0"
       width="1"
       height="1">
      <feColorMatrix
         values="1 0 0 0 0 0 1 0 0 0 0 0 1 0 0 0 0 0 1000 -500 "
         id="feColorMatrix311" />
    </filter>
  </defs>
  <g
     inkscape:label="Layer 1"
     inkscape:groupmode="layer"
     id="layer1">
    <path
       id="path3343"
       style="fill:#000000;fill-opacity:1;stroke:#000000;stroke-width:0;stroke-linecap:butt;stroke-linejoin:miter;stroke-dasharray:none;stroke-opacity:1"
       d="M 6 1 C 5.000002 1 4 2.000002 4 3 L 4 21 C 4 21.999998 5.000002 23 6 23 L 18 23 C 18.999998 23 20 21.999998 20 21 L 20 8 L 14.769531 8.0390625 C 14.031484 8.0445745 13.421875 7.4294741 13.421875 6.6914062 L 13.421875 1 L 6 1 z M 14.421875 1.421875 L 14.421875 6.6914062 C 14.421875 6.8927729 14.568164 7.0390625 14.769531 7.0390625 L 20 7.0390625 L 20 7 L 14.421875 1.421875 z M 11.941406 9.1894531 L 12.615234 9.2167969 L 13.181641 9.2851562 L 13.660156 9.390625 L 14.046875 9.5292969 L 14.359375 9.6875 L 14.597656 9.8574219 L 14.779297 10.039062 L 14.912109 10.21875 L 14.996094 10.394531 L 15.048828 10.552734 L 15.070312 10.691406 L 15.080078 10.796875 L 15.076172 10.865234 L 15.076172 13.697266 L 15.048828 14.03125 L 14.980469 14.324219 L 14.869141 14.568359 L 14.730469 14.769531 L 14.572266 14.933594 L 14.396484 15.066406 L 14.210938 15.167969 L 14.025391 15.242188 L 13.849609 15.294922 L 13.691406 15.332031 L 13.552734 15.353516 L 13.441406 15.363281 L 10.275391 15.363281 L 9.9101562 15.390625 L 9.5976562 15.464844 L 9.3320312 15.580078 L 9.1132812 15.724609 L 8.9394531 15.894531 L 8.7949219 16.080078 L 8.6894531 16.269531 L 8.609375 16.466797 L 8.5566406 16.652344 L 8.5195312 16.822266 L 8.4980469 16.964844 L 8.4882812 17.076172 L 8.4882812 18.699219 L 7.3046875 18.699219 L 7.1933594 18.683594 L 7.0449219 18.646484 L 6.875 18.582031 L 6.6894531 18.486328 L 6.5 18.349609 L 6.3085938 18.158203 L 6.1230469 17.914062 L 5.953125 17.601562 L 5.8046875 17.214844 L 5.6933594 16.748047 L 5.6191406 16.191406 L 5.5917969 15.539062 L 5.625 14.890625 L 5.7089844 14.339844 L 5.8359375 13.878906 L 6.0058594 13.501953 L 6.1972656 13.199219 L 6.4082031 12.966797 L 6.6328125 12.791016 L 6.8554688 12.664062 L 7.0664062 12.578125 L 7.2578125 12.525391 L 7.4277344 12.5 L 7.5546875 12.494141 L 7.6386719 12.494141 L 7.671875 12.5 L 12 12.5 L 12 12.058594 L 8.9023438 12.058594 L 8.8964844 10.599609 L 8.8867188 10.404297 L 8.9121094 10.224609 L 8.9707031 10.058594 L 9.0605469 9.9101562 L 9.1933594 9.7734375 L 9.3574219 9.6503906 L 9.5605469 9.5449219 L 9.7929688 9.4492188 L 10.0625 9.3691406 L 10.371094 9.3066406 L 10.710938 9.2539062 L 11.087891 9.2207031 L 11.496094 9.2011719 L 11.941406 9.1894531 z M 10.232422 10.169922 L 10.015625 10.21875 L 9.8398438 10.335938 L 9.71875 10.509766 L 9.6757812 10.728516 L 9.71875 10.945312 L 9.8398438 11.125 L 10.015625 11.242188 L 10.232422 11.289062 L 10.451172 11.242188 L 10.625 11.125 L 10.748047 10.945312 L 10.791016 10.728516 L 10.748047 10.509766 L 10.625 10.335938 L 10.451172 10.21875 L 10.232422 10.169922 z M 15.490234 12.408203 L 16.597656 12.408203 L 16.671875 12.414062 L 16.783203 12.429688 L 16.931641 12.462891 L 17.101562 12.525391 L 17.287109 12.621094 L 17.478516 12.763672 L 17.669922 12.949219 L 17.855469 13.199219 L 18.025391 13.511719 L 18.173828 13.900391 L 18.285156 14.365234 L 18.359375 14.917969 L 18.384766 15.570312 L 18.353516 16.222656 L 18.267578 16.773438 L 18.140625 17.230469 L 17.970703 17.607422 L 17.78125 17.908203 L 17.568359 18.148438 L 17.345703 18.322266 L 17.123047 18.449219 L 16.910156 18.535156 L 16.720703 18.582031 L 16.550781 18.609375 L 16.421875 18.619141 L 16.337891 18.615234 L 11.978516 18.615234 L 11.978516 19.048828 L 15.076172 19.048828 L 15.080078 20.513672 L 15.091797 20.705078 L 15.064453 20.884766 L 15.005859 21.048828 L 14.916016 21.203125 L 14.783203 21.335938 L 14.619141 21.462891 L 14.417969 21.568359 L 14.183594 21.658203 L 13.914062 21.738281 L 13.607422 21.806641 L 13.267578 21.855469 L 12.890625 21.892578 L 12.482422 21.914062 L 12.037109 21.917969 L 11.363281 21.898438 L 10.794922 21.824219 L 10.318359 21.716797 L 9.9316406 21.583984 L 9.6171875 21.425781 L 9.3789062 21.25 L 9.1992188 21.070312 L 9.0664062 20.890625 L 8.9824219 20.714844 L 8.9277344 20.556641 L 8.90625 20.423828 L 8.8964844 20.316406 L 8.9023438 20.248047 L 8.9023438 17.416016 L 8.9277344 17.076172 L 8.9980469 16.791016 L 9.109375 16.546875 L 9.2460938 16.34375 L 9.40625 16.175781 L 9.5800781 16.046875 L 9.765625 15.941406 L 9.9511719 15.867188 L 10.126953 15.814453 L 10.287109 15.783203 L 10.423828 15.761719 L 10.535156 15.75 L 10.603516 15.746094 L 13.701172 15.746094 L 14.068359 15.71875 L 14.380859 15.644531 L 14.646484 15.533203 L 14.863281 15.384766 L 15.039062 15.214844 L 15.181641 15.029297 L 15.287109 14.837891 L 15.367188 14.646484 L 15.419922 14.460938 L 15.457031 14.291016 L 15.478516 14.142578 L 15.490234 14.03125 L 15.490234 12.408203 z M 13.744141 19.824219 L 13.527344 19.867188 L 13.351562 19.988281 L 13.230469 20.164062 L 13.1875 20.380859 L 13.230469 20.597656 L 13.351562 20.773438 L 13.527344 20.894531 L 13.744141 20.9375 L 13.960938 20.894531 L 14.136719 20.773438 L 14.259766 20.597656 L 14.300781 20.380859 L 14.259766 20.164062 L 14.136719 19.988281 L 13.960938 19.867188 L 13.744141 19.824219 z " />
    <title
       id="title6285">Python</title>
  </g>
</svg>
