<?xml version="1.0" encoding="UTF-8" standalone="no"?>
<!-- Created with Inkscape (http://www.inkscape.org/) -->

<svg
   width="24.0px"
   height="24.0px"
   viewBox="0 0 24.0 24.0"
   version="1.1"
   id="SVGRoot"
   sodipodi:docname="file-js.svg"
   inkscape:version="1.2.2 (b0a8486541, 2022-12-01)"
   xmlns:inkscape="http://www.inkscape.org/namespaces/inkscape"
   xmlns:sodipodi="http://sodipodi.sourceforge.net/DTD/sodipodi-0.dtd"
   xmlns="http://www.w3.org/2000/svg"
   xmlns:svg="http://www.w3.org/2000/svg">
  <sodipodi:namedview
     id="namedview136"
     pagecolor="#505050"
     bordercolor="#ffffff"
     borderopacity="1"
     inkscape:showpageshadow="0"
     inkscape:pageopacity="0"
     inkscape:pagecheckerboard="1"
     inkscape:deskcolor="#505050"
     inkscape:document-units="px"
     showgrid="true"
     inkscape:zoom="22.627417"
     inkscape:cx="7.0931649"
     inkscape:cy="14.893437"
     inkscape:window-width="1920"
     inkscape:window-height="1011"
     inkscape:window-x="0"
     inkscape:window-y="0"
     inkscape:window-maximized="1"
     inkscape:current-layer="layer1"
     showguides="true">
    <inkscape:grid
       type="xygrid"
       id="grid142" />
  </sodipodi:namedview>
  <defs
     id="defs131">
    <linearGradient
       id="linearGradient6150"
       inkscape:swatch="solid">
      <stop
         style="stop-color:#ffffff;stop-opacity:1;"
         offset="0"
         id="stop6148" />
    </linearGradient>
    <filter
       inkscape:label="Pixellize"
       inkscape:menu="Pixel Tools"
       inkscape:menu-tooltip="Reduce or remove antialiasing around shapes"
       style="color-interpolation-filters:sRGB;"
       id="filter313"
       x="0"
       y="0"
       width="1"
       height="1">
      <feColorMatrix
         values="1 0 0 0 0 0 1 0 0 0 0 0 1 0 0 0 0 0 1000 -500 "
         id="feColorMatrix311" />
    </filter>
  </defs>
  <g
     inkscape:label="Layer 1"
     inkscape:groupmode="layer"
     id="layer1">
    <path
       id="path3343"
       style="fill:#000000;fill-opacity:1;stroke:#000000;stroke-width:0;stroke-linecap:butt;stroke-linejoin:miter;stroke-dasharray:none;stroke-opacity:1"
       d="M 6 1 C 5.000002 1 4 2.000002 4 3 L 4 21 C 4 21.999998 5.000002 23 6 23 L 18 23 C 18.999998 23 20 21.999998 20 21 L 20 8 L 14.769531 8.0390625 C 14.031484 8.0445745 13.421875 7.4294741 13.421875 6.6914062 L 13.421875 1 L 6 1 z M 14.421875 1.421875 L 14.421875 6.6914062 C 14.421875 6.8927729 14.568164 7.0390625 14.769531 7.0390625 L 20 7.0390625 L 20 7 L 14.421875 1.421875 z M 16.375 15.525391 C 16.457769 15.523491 16.536228 15.525297 16.611328 15.529297 C 16.686424 15.533297 16.758152 15.540981 16.826172 15.550781 C 16.894195 15.560581 16.957981 15.572381 17.019531 15.587891 C 17.081082 15.603401 17.139633 15.621448 17.195312 15.642578 C 17.250992 15.663718 17.305059 15.688174 17.355469 15.714844 C 17.40588 15.741514 17.45426 15.770624 17.5 15.802734 C 17.545739 15.83485 17.589189 15.86878 17.630859 15.90625 C 17.67253 15.943724 17.7118 15.984594 17.75 16.027344 C 17.79414 16.070759 17.83134 16.115558 17.875 16.173828 C 17.918658 16.2321 17.967713 16.304381 18.033203 16.40625 C 17.683452 16.624057 17.685177 16.62325 17.183594 16.951172 C 17.169894 16.922072 17.154312 16.895521 17.138672 16.869141 C 17.123032 16.842761 17.107214 16.816619 17.089844 16.792969 C 17.072464 16.769319 17.054066 16.747482 17.035156 16.726562 C 17.016246 16.705643 16.996812 16.686159 16.976562 16.667969 C 16.956313 16.649779 16.935462 16.632647 16.914062 16.617188 C 16.892663 16.601728 16.869996 16.586949 16.847656 16.574219 C 16.825316 16.561489 16.802397 16.551016 16.779297 16.541016 C 16.756207 16.531016 16.732634 16.522925 16.708984 16.515625 C 16.672606 16.504715 16.635796 16.495434 16.597656 16.490234 C 16.559512 16.485022 16.520852 16.483655 16.482422 16.484375 C 16.443997 16.485095 16.404417 16.489294 16.367188 16.496094 C 16.329956 16.502854 16.294326 16.512441 16.259766 16.525391 C 16.225206 16.538331 16.192519 16.552986 16.162109 16.572266 C 16.131699 16.591546 16.102915 16.614865 16.078125 16.640625 C 16.053335 16.666385 16.033305 16.696126 16.015625 16.728516 C 15.997945 16.760907 15.983709 16.796768 15.974609 16.835938 C 15.967479 16.859587 15.961684 16.88226 15.958984 16.90625 C 15.956284 16.93024 15.957184 16.955592 15.958984 16.982422 C 15.960804 17.009252 15.964303 17.038133 15.970703 17.070312 C 15.977103 17.102483 15.985064 17.137714 15.996094 17.177734 C 16.010824 17.211384 16.029904 17.242204 16.052734 17.271484 C 16.075564 17.300754 16.103133 17.327816 16.132812 17.353516 C 16.162492 17.379206 16.195189 17.402871 16.230469 17.425781 C 16.265747 17.448691 16.302157 17.471268 16.341797 17.492188 C 16.421079 17.534028 16.508406 17.572668 16.597656 17.611328 C 16.686905 17.649989 16.779881 17.688629 16.869141 17.730469 C 16.997385 17.782495 17.114844 17.835602 17.222656 17.888672 C 17.330468 17.941745 17.428568 17.994498 17.517578 18.048828 C 17.562081 18.075998 17.604411 18.103339 17.644531 18.130859 C 17.684642 18.158389 17.721883 18.186934 17.757812 18.214844 C 17.793735 18.242744 17.827435 18.270518 17.859375 18.298828 C 17.891315 18.327148 17.921049 18.356016 17.949219 18.384766 C 17.977389 18.413516 18.004707 18.441493 18.029297 18.470703 C 18.053887 18.499913 18.076436 18.528894 18.097656 18.558594 C 18.118876 18.588294 18.13819 18.618228 18.15625 18.648438 C 18.17431 18.678657 18.189978 18.709474 18.205078 18.740234 C 18.235278 18.801754 18.259707 18.863884 18.279297 18.927734 C 18.298877 18.991586 18.313609 19.056647 18.324219 19.123047 L 18.302734 19.091797 C 18.312794 19.149098 18.319319 19.203749 18.324219 19.255859 C 18.329119 19.307977 18.333231 19.357737 18.333984 19.404297 C 18.334784 19.450856 18.332378 19.494526 18.330078 19.535156 C 18.327778 19.575784 18.324612 19.612154 18.320312 19.646484 C 18.311673 19.71515 18.299382 19.77123 18.289062 19.8125 C 18.278753 19.85377 18.271078 19.881658 18.267578 19.892578 C 18.255738 19.933056 18.241692 19.971726 18.226562 20.009766 C 18.211433 20.047811 18.194021 20.083511 18.175781 20.119141 C 18.157551 20.154766 18.138347 20.189416 18.117188 20.222656 C 18.096028 20.255896 18.072728 20.289443 18.048828 20.320312 C 18.024928 20.351182 18.001069 20.379683 17.974609 20.408203 C 17.948149 20.436723 17.919465 20.464034 17.890625 20.490234 C 17.861795 20.516434 17.831811 20.542506 17.800781 20.566406 C 17.769761 20.590306 17.738118 20.613146 17.705078 20.634766 C 17.672045 20.656386 17.638376 20.675953 17.603516 20.695312 C 17.568655 20.714672 17.532604 20.73288 17.496094 20.75 C 17.423081 20.78423 17.346068 20.814434 17.267578 20.839844 C 17.189089 20.865254 17.109844 20.885574 17.027344 20.902344 C 16.944842 20.919114 16.860441 20.931153 16.775391 20.939453 C 16.69034 20.947723 16.603718 20.953133 16.517578 20.953125 C 16.431442 20.953115 16.345526 20.949506 16.259766 20.941406 C 16.17401 20.933266 16.087826 20.920387 16.003906 20.904297 C 15.91999 20.888207 15.838422 20.86761 15.757812 20.84375 C 15.677203 20.81989 15.597324 20.793189 15.521484 20.761719 C 15.445642 20.73025 15.374297 20.69515 15.304688 20.65625 C 15.235079 20.617354 15.167379 20.573504 15.105469 20.527344 C 15.074519 20.504264 15.044385 20.479938 15.015625 20.455078 C 14.986865 20.430218 14.959974 20.405526 14.933594 20.378906 C 14.846277 20.277037 14.774607 20.201014 14.710938 20.121094 C 14.679108 20.081131 14.649064 20.039571 14.621094 19.994141 C 14.593124 19.948709 14.566486 19.900007 14.541016 19.841797 L 15.427734 19.330078 C 15.457744 19.375554 15.487878 19.418614 15.517578 19.458984 C 15.547278 19.499359 15.577252 19.538719 15.607422 19.574219 C 15.637592 19.609719 15.667819 19.642988 15.699219 19.673828 C 15.730629 19.704658 15.763465 19.731403 15.796875 19.757812 C 15.830291 19.784222 15.864201 19.809831 15.900391 19.832031 C 15.936585 19.854231 15.975875 19.874368 16.015625 19.892578 C 16.055375 19.910798 16.096555 19.926956 16.140625 19.941406 C 16.184697 19.955856 16.230117 19.967606 16.279297 19.978516 C 16.345754 19.986686 16.413136 19.992005 16.478516 19.992188 C 16.543894 19.992367 16.608212 19.988869 16.669922 19.980469 C 16.731635 19.972119 16.790243 19.958846 16.845703 19.941406 C 16.873433 19.932686 16.900101 19.923199 16.925781 19.912109 C 16.951471 19.901019 16.97668 19.88853 17 19.875 C 17.02332 19.86147 17.045786 19.846118 17.066406 19.830078 C 17.087026 19.814048 17.105437 19.795954 17.123047 19.777344 C 17.140657 19.758734 17.157605 19.74 17.171875 19.71875 C 17.186145 19.6975 17.198384 19.674351 17.208984 19.650391 C 17.219584 19.626431 17.227775 19.600959 17.234375 19.574219 C 17.241045 19.547479 17.245747 19.519814 17.248047 19.490234 C 17.250347 19.460654 17.250347 19.428974 17.248047 19.396484 C 17.245727 19.363992 17.241675 19.330392 17.234375 19.294922 C 17.226645 19.265782 17.215222 19.237467 17.201172 19.210938 C 17.187122 19.184418 17.170191 19.159046 17.150391 19.134766 C 17.130591 19.110486 17.107031 19.088796 17.082031 19.066406 C 17.057031 19.044016 17.02963 19.02087 17 19 C 16.97037 18.97913 16.93995 18.959163 16.90625 18.939453 C 16.872548 18.919743 16.836038 18.901722 16.798828 18.882812 C 16.724416 18.844984 16.643664 18.808304 16.558594 18.771484 C 16.473521 18.734663 16.384209 18.696923 16.292969 18.658203 C 16.20173 18.619486 16.108535 18.578686 16.015625 18.535156 C 15.922715 18.491631 15.830324 18.445761 15.740234 18.394531 C 15.695192 18.368911 15.650922 18.342543 15.607422 18.314453 C 15.563925 18.286373 15.519906 18.255539 15.478516 18.224609 C 15.436676 18.196409 15.397185 18.165742 15.359375 18.132812 C 15.321573 18.099887 15.285633 18.066417 15.251953 18.029297 C 15.218283 17.992179 15.187643 17.952889 15.158203 17.912109 C 15.128763 17.871336 15.101282 17.829046 15.076172 17.785156 C 15.051062 17.741267 15.028502 17.694897 15.007812 17.648438 C 14.987123 17.60198 14.969285 17.554349 14.953125 17.505859 C 14.936965 17.457362 14.921686 17.407412 14.910156 17.357422 C 14.898626 17.307433 14.889612 17.257971 14.882812 17.207031 C 14.876043 17.156089 14.871141 17.104094 14.869141 17.052734 C 14.867241 17.001378 14.868194 16.949667 14.871094 16.898438 C 14.874044 16.847209 14.878719 16.796654 14.886719 16.746094 C 14.894679 16.695533 14.906832 16.645063 14.919922 16.595703 C 14.933002 16.546342 14.948487 16.498782 14.966797 16.451172 C 14.985107 16.403557 15.005667 16.355877 15.029297 16.310547 C 15.052927 16.265217 15.078382 16.222197 15.107422 16.179688 C 15.136462 16.137182 15.168565 16.095781 15.203125 16.056641 C 15.226775 16.027531 15.252007 15.999876 15.279297 15.972656 C 15.306587 15.945436 15.336678 15.917758 15.367188 15.892578 C 15.397687 15.867398 15.429581 15.843322 15.462891 15.820312 C 15.496196 15.797303 15.530726 15.776549 15.566406 15.755859 C 15.602091 15.735169 15.638141 15.715496 15.675781 15.697266 C 15.713425 15.679036 15.751836 15.662114 15.791016 15.646484 C 15.830197 15.630854 15.869866 15.616406 15.910156 15.603516 C 15.950453 15.590626 15.992213 15.578359 16.033203 15.568359 L 16.375 15.525391 z M 12.876953 15.609375 L 13.966797 15.609375 L 13.964844 15.636719 C 13.964844 16.138787 13.966025 16.639391 13.966797 17.138672 C 13.967497 17.637951 13.967744 18.136576 13.964844 18.634766 C 13.965544 18.789508 13.969303 18.940037 13.970703 19.085938 C 13.971397 19.158906 13.971903 19.230221 13.970703 19.300781 C 13.969603 19.371338 13.967291 19.439813 13.962891 19.507812 C 13.958511 19.575814 13.952359 19.643674 13.943359 19.708984 C 13.934389 19.774296 13.923123 19.837911 13.908203 19.900391 C 13.893283 19.962869 13.873802 20.024484 13.851562 20.083984 C 13.829323 20.14349 13.804357 20.201423 13.773438 20.257812 C 13.752038 20.301472 13.727252 20.343003 13.701172 20.382812 C 13.675082 20.422613 13.647547 20.460104 13.617188 20.496094 C 13.586828 20.532076 13.553751 20.565456 13.519531 20.597656 C 13.485309 20.629856 13.449799 20.661013 13.412109 20.689453 C 13.374422 20.717893 13.335662 20.744821 13.294922 20.769531 C 13.254179 20.794241 13.211359 20.816881 13.167969 20.837891 C 13.124573 20.858901 13.078843 20.877191 13.033203 20.894531 C 12.987561 20.911871 12.942011 20.927706 12.894531 20.941406 C 12.821585 20.957776 12.749634 20.970569 12.677734 20.980469 C 12.605834 20.990299 12.533291 20.9965 12.462891 21 C 12.392491 21.0036 12.324299 21.004553 12.255859 21.001953 C 12.187416 20.999303 12.118764 20.992975 12.052734 20.984375 C 11.986701 20.975735 11.922545 20.965642 11.859375 20.951172 C 11.796207 20.936702 11.733678 20.918557 11.673828 20.898438 C 11.61398 20.878318 11.55607 20.855688 11.5 20.830078 C 11.443926 20.804468 11.389731 20.775061 11.337891 20.744141 C 11.303088 20.723221 11.269168 20.701534 11.236328 20.677734 C 11.203488 20.653934 11.173428 20.628042 11.142578 20.601562 C 11.111728 20.575083 11.081584 20.548481 11.052734 20.519531 C 11.023894 20.490591 10.99557 20.460897 10.96875 20.429688 C 10.94193 20.398468 10.915395 20.365301 10.890625 20.332031 C 10.865865 20.298759 10.843012 20.265589 10.820312 20.230469 C 10.774916 20.160229 10.734256 20.086166 10.697266 20.009766 L 11.582031 19.462891 C 11.586151 19.462891 11.592966 19.474788 11.603516 19.492188 C 11.614066 19.509597 11.627298 19.533124 11.642578 19.558594 C 11.670828 19.605773 11.698523 19.649153 11.726562 19.689453 C 11.754602 19.729751 11.783193 19.766671 11.814453 19.800781 C 11.845709 19.834891 11.880049 19.865931 11.917969 19.894531 C 11.955885 19.923131 11.998845 19.948886 12.046875 19.972656 C 12.070285 19.979986 12.09549 19.988041 12.125 19.994141 C 12.1545 20.000311 12.186963 20.004313 12.220703 20.007812 C 12.254442 20.011412 12.290052 20.01418 12.326172 20.013672 C 12.362287 20.013172 12.398927 20.009806 12.435547 20.003906 C 12.472172 19.997966 12.509652 19.989352 12.544922 19.976562 C 12.580184 19.963773 12.614434 19.946821 12.646484 19.925781 C 12.662504 19.915261 12.676536 19.903475 12.691406 19.890625 C 12.706276 19.877775 12.720895 19.864959 12.734375 19.849609 C 12.747855 19.834259 12.761578 19.816858 12.773438 19.798828 C 12.785297 19.780798 12.794688 19.761124 12.804688 19.740234 C 12.816877 19.719134 12.827438 19.692486 12.835938 19.660156 C 12.844437 19.627835 12.852022 19.589135 12.857422 19.546875 C 12.862842 19.504623 12.866141 19.459093 12.869141 19.408203 C 12.872141 19.357308 12.8739 19.302381 12.875 19.244141 C 12.8795 19.011175 12.873047 18.724598 12.873047 18.425781 C 12.873047 17.484218 12.876953 16.549483 12.876953 15.609375 z " />
    <title
       id="title6320">JavaScript</title>
  </g>
</svg>
