<?xml version="1.0" encoding="UTF-8" standalone="no"?>
<!-- Created with Inkscape (http://www.inkscape.org/) -->

<svg
   width="24.0px"
   height="24.0px"
   viewBox="0 0 24.0 24.0"
   version="1.1"
   id="SVGRoot"
   sodipodi:docname="folder (copy).svg"
   inkscape:version="1.2.2 (b0a8486541, 2022-12-01)"
   xmlns:inkscape="http://www.inkscape.org/namespaces/inkscape"
   xmlns:sodipodi="http://sodipodi.sourceforge.net/DTD/sodipodi-0.dtd"
   xmlns="http://www.w3.org/2000/svg"
   xmlns:svg="http://www.w3.org/2000/svg">
  <sodipodi:namedview
     id="namedview136"
     pagecolor="#505050"
     bordercolor="#ffffff"
     borderopacity="1"
     inkscape:showpageshadow="0"
     inkscape:pageopacity="0"
     inkscape:pagecheckerboard="1"
     inkscape:deskcolor="#505050"
     inkscape:document-units="px"
     showgrid="true"
     inkscape:zoom="16"
     inkscape:cx="6.84375"
     inkscape:cy="10.25"
     inkscape:window-width="1920"
     inkscape:window-height="1011"
     inkscape:window-x="0"
     inkscape:window-y="0"
     inkscape:window-maximized="1"
     inkscape:current-layer="layer1"
     showguides="true">
    <inkscape:grid
       type="xygrid"
       id="grid142" />
  </sodipodi:namedview>
  <defs
     id="defs131">
    <linearGradient
       id="linearGradient6150"
       inkscape:swatch="solid">
      <stop
         style="stop-color:#ffffff;stop-opacity:1;"
         offset="0"
         id="stop6148" />
    </linearGradient>
    <filter
       inkscape:label="Pixellize"
       inkscape:menu="Pixel Tools"
       inkscape:menu-tooltip="Reduce or remove antialiasing around shapes"
       style="color-interpolation-filters:sRGB;"
       id="filter313"
       x="0"
       y="0"
       width="1"
       height="1">
      <feColorMatrix
         values="1 0 0 0 0 0 1 0 0 0 0 0 1 0 0 0 0 0 1000 -500 "
         id="feColorMatrix311" />
    </filter>
  </defs>
  <g
     inkscape:label="Layer 1"
     inkscape:groupmode="layer"
     id="layer1">
    <path
       id="path4088"
       style="fill:#000000;fill-opacity:1;stroke:#000000;stroke-width:0;stroke-linecap:round;stroke-linejoin:round;stroke-dasharray:none;stroke-opacity:1"
       d="M 3 4 C 2.000002 4 1 5.000002 1 6 L 1 19 C 1 19.999998 2.000002 21 3 21 L 21 21 C 21.999998 21 23 19.999998 23 19 L 23 8 C 23 7.000002 21.999998 6 21 6 L 13 6 C 12.000002 6 10.999998 4 10 4 L 3 4 z M 11.648438 8.8046875 C 11.900431 8.7937746 12.134098 8.938481 12.234375 9.1699219 L 13.294922 11.630859 C 14.188291 11.642239 15.083185 11.652624 15.976562 11.664062 C 16.532294 11.673513 16.785982 12.362814 16.369141 12.730469 L 14.357422 14.501953 L 15.154297 17.0625 C 15.318905 17.594482 14.740924 18.049284 14.261719 17.765625 L 11.955078 16.398438 L 9.7675781 17.947266 C 9.3124601 18.270433 8.6996338 17.860955 8.8222656 17.316406 L 9.4082031 14.701172 L 7.2617188 13.099609 C 6.8155716 12.766366 7.0139894 12.058519 7.5683594 12.005859 L 10.236328 11.755859 L 11.097656 9.2167969 C 11.178967 8.9789516 11.397279 8.8147555 11.648438 8.8046875 z " />
    <rect
       style="fill:#000000;stroke:#ff0000;stroke-width:1;stroke-linecap:round;stroke-linejoin:round;stroke-dasharray:none;stroke-opacity:1"
       id="rect13479"
       width="18"
       height="19"
       x="-48"
       y="-2.5"
       rx="0.78973925" />
  </g>
</svg>
