<?xml version="1.0" encoding="UTF-8" standalone="no"?>
<!-- Created with Inkscape (http://www.inkscape.org/) -->

<svg
   width="24.0px"
   height="24.0px"
   viewBox="0 0 24.0 24.0"
   version="1.1"
   id="SVGRoot"
   sodipodi:docname="zip-folder.svg"
   inkscape:version="1.2.2 (b0a8486541, 2022-12-01)"
   xmlns:inkscape="http://www.inkscape.org/namespaces/inkscape"
   xmlns:sodipodi="http://sodipodi.sourceforge.net/DTD/sodipodi-0.dtd"
   xmlns="http://www.w3.org/2000/svg"
   xmlns:svg="http://www.w3.org/2000/svg">
  <sodipodi:namedview
     id="namedview136"
     pagecolor="#505050"
     bordercolor="#ffffff"
     borderopacity="1"
     inkscape:showpageshadow="0"
     inkscape:pageopacity="0"
     inkscape:pagecheckerboard="1"
     inkscape:deskcolor="#505050"
     inkscape:document-units="px"
     showgrid="true"
     inkscape:zoom="32"
     inkscape:cx="6.5"
     inkscape:cy="13.28125"
     inkscape:window-width="1920"
     inkscape:window-height="1011"
     inkscape:window-x="0"
     inkscape:window-y="0"
     inkscape:window-maximized="1"
     inkscape:current-layer="layer1"
     showguides="true">
    <inkscape:grid
       type="xygrid"
       id="grid142" />
  </sodipodi:namedview>
  <defs
     id="defs131">
    <linearGradient
       id="linearGradient6150"
       inkscape:swatch="solid">
      <stop
         style="stop-color:#ffffff;stop-opacity:1;"
         offset="0"
         id="stop6148" />
    </linearGradient>
    <filter
       inkscape:label="Pixellize"
       inkscape:menu="Pixel Tools"
       inkscape:menu-tooltip="Reduce or remove antialiasing around shapes"
       style="color-interpolation-filters:sRGB;"
       id="filter313"
       x="0"
       y="0"
       width="1"
       height="1">
      <feColorMatrix
         values="1 0 0 0 0 0 1 0 0 0 0 0 1 0 0 0 0 0 1000 -500 "
         id="feColorMatrix311" />
    </filter>
  </defs>
  <g
     inkscape:label="Layer 1"
     inkscape:groupmode="layer"
     id="layer1">
    <path
       id="path4088"
       style="fill:#000000;fill-opacity:1;stroke:#000000;stroke-width:0;stroke-linecap:round;stroke-linejoin:round;stroke-dasharray:none;stroke-opacity:1"
       d="M 3 4 C 2.000003 4 1 5.000003 1 6 L 1 19 C 1 19.999997 2.000003 21 3 21 L 21 21 C 21.999997 21 23 19.999997 23 19 L 23 8 C 23 7.000003 21.999997 6 21 6 L 13 6 C 12.000003 6 10.999997 4 10 4 L 6 4 L 6 5 C 6 5.9999995 5 6 5 6 C 5 6 4 5.9999995 4 5 L 4 4 L 3 4 z M 5 9.5 C 5 9.5 6 9.500002 6 10.5 L 6 11.5 C 6 12.499998 5 12.5 5 12.5 C 5 12.5 4 12.499998 4 11.5 L 4 10.5 C 4 9.500002 5 9.5 5 9.5 z M 5 15 C 5.999997 15 7 16.000003 7 17 C 7 17.999999 5.999997 19 5 19 C 4.000003 19 3 17.999998 3 17 C 3 16.000003 4.000003 15 5 15 z " />
    <path
       style="fill:#000000;fill-opacity:1;stroke:#000000;stroke-width:0;stroke-linecap:butt;stroke-linejoin:miter;stroke-dasharray:none;stroke-opacity:1"
       d="m -7,7 c 0,0 1,0 1,1 v 1 c 0,1 -1,1 -1,1 0,0 -1,0 -1,-1 V 8 c 0,-1 1,-1 1,-1 z"
       id="path19093"
       sodipodi:nodetypes="ccccccc" />
  </g>
</svg>
